<svg id="visual" viewBox="0 0 960 540" width="960" height="540" xmlns="http://www.w3.org/2000/svg" xmlns:xlink="http://www.w3.org/1999/xlink" version="1.1"><rect x="0" y="0" width="960" height="540" fill="#466B46"></rect><g transform="translate(449.3159016163264 248.03340766016632)"><path d="M115.9 -158.1C166.3 -148 234.1 -143 273.4 -109.5C312.7 -75.9 323.4 -14 313.3 44C303.3 101.9 272.6 155.7 224.8 174.7C177.1 193.7 112.3 177.8 59.4 185.7C6.5 193.7 -34.5 225.4 -80.1 231.1C-125.7 236.7 -175.8 216.3 -198.7 178.5C-221.6 140.7 -217.2 85.7 -228.5 30.7C-239.8 -24.3 -266.8 -79.3 -250.3 -113.8C-233.7 -148.3 -173.6 -162.5 -124.7 -173.1C-75.7 -183.8 -37.8 -190.9 -2.5 -187C32.8 -183 65.6 -168.1 115.9 -158.1" fill="#ffffff"></path></g></svg>